<svg width="16" height="16" viewBox="0 0 16 16" fill="none" xmlns="http://www.w3.org/2000/svg">
    <path fill-rule="evenodd" clip-rule="evenodd"
          d="M12.1464 9.14646C12.3417 8.9512 12.6583 8.9512 12.8536 9.14646L15.8536 12.1465C16.0488 12.3417 16.0488 12.6583 15.8536 12.8536L12.8536 15.8536C12.6583 16.0488 12.3417 16.0488 12.1464 15.8536C11.9512 15.6583 11.9512 15.3417 12.1464 15.1465L14.2929 13H8.5C8.22386 13 8 12.7761 8 12.5C8 12.2239 8.22386 12 8.5 12H14.2929L12.1464 9.85357C11.9512 9.65831 11.9512 9.34172 12.1464 9.14646Z"
          fill="#CED0D6"/>
    <path d="M14.9617 9.84038C15.2742 7.67923 14.2911 5.40046 12.4453 3.55466C9.58594 0.695258 5.64069 -0.0156236 2.81255 2.81251C-0.0155783 5.64064 0.797642 9.73508 3.53131 12.4688C5.7341 14.6715 8.79001 15.6781 11.4063 14.4735C11.4171 14.462 11.4281 14.4506 11.4394 14.4394L11.8788 14H8.50006C7.67163 14 7.00006 13.3284 7.00006 12.5C7.00006 11.6716 7.67163 11 8.50006 11H11.8787L11.4394 10.5607C10.8536 9.97489 10.8536 9.02514 11.4394 8.43936C12.0252 7.85357 12.9749 7.85357 13.5607 8.43936L14.9617 9.84038Z"
          fill="#253627"/>
    <path d="M14.9617 9.84043C15.2743 7.67926 14.2912 5.40048 12.4453 3.55466C9.58594 0.695258 5.64069 -0.0156236 2.81255 2.81251C-0.0155783 5.64064 0.797642 9.73508 3.53131 12.4688C5.73407 14.6715 8.78992 15.678 11.4062 14.4736C11.417 14.462 11.4281 14.4506 11.4393 14.4394L11.8787 14H8.5C8.26769 14 8.04771 13.9472 7.85142 13.8529C6.5849 13.567 5.31456 12.8378 4.23842 11.7616C3.00567 10.5289 2.24263 9.02408 2.08011 7.56533C1.93664 6.27756 2.25426 4.99679 3.18158 3.88859L10.293 11H11.7072L3.88779 3.18058C5.00024 2.24018 6.25426 1.91061 7.51081 2.04508C8.93584 2.19758 10.4348 2.95835 11.7382 4.26177C13.0481 5.5716 13.825 7.0622 13.987 8.48064C14.0028 8.61893 14.0128 8.75732 14.017 8.89565L14.9617 9.84043Z"
          fill="#57965C"/>
</svg>
