<svg width="16" height="16" viewBox="0 0 16 16" fill="none" xmlns="http://www.w3.org/2000/svg">
    <path d="M14.9908 8.46379C14.8217 6.73817 13.9022 5.01155 12.4453 3.55466C9.58594 0.695258 5.64069 -0.0156236 2.81255 2.81251C-0.0155783 5.64064 0.797642 9.73508 3.53131 12.4688C5.15475 14.0922 7.24157 15.0659 9.27427 14.9836C9.2309 14.9135 9.18923 14.842 9.14927 14.7689L9.14466 14.7603C8.7749 14.0681 8.59772 13.3077 8.59772 12.5C8.59772 11.6924 8.77489 10.9329 9.14626 10.2432L9.14763 10.2407C9.52046 9.55308 10.0428 8.99957 10.7076 8.59999C11.3799 8.19589 12.1276 8 12.9257 8C13.5726 8 14.1876 8.11104 14.7537 8.35407C14.8345 8.38812 14.9135 8.42471 14.9908 8.46379Z"
          fill="#253627"/>
    <path d="M14.9906 8.46376C14.8215 6.73815 13.9021 5.01154 12.4452 3.55466C9.58582 0.695258 5.64056 -0.0156236 2.81243 2.81251C-0.0157003 5.64064 0.79752 9.73508 3.53119 12.4688C5.15464 14.0922 7.24149 15.0659 9.2742 14.9836C9.23084 14.9135 9.18917 14.842 9.14921 14.7689L9.1446 14.7603C9.01092 14.51 8.90241 14.2509 8.81835 13.9838C8.68761 13.9782 8.55675 13.9675 8.42594 13.952C6.97411 13.78 5.47745 13.0008 4.2383 11.7616C3.00555 10.5289 2.24251 9.02408 2.07999 7.56533C1.93651 6.27756 2.25414 4.99679 3.18146 3.88859L9.28962 9.99675C9.47023 9.70755 9.67982 9.44497 9.91781 9.21073L3.88766 3.18058C5.00012 2.24018 6.25414 1.91061 7.51069 2.04508C8.93572 2.19758 10.4347 2.95835 11.7381 4.26177C12.9305 5.45413 13.6812 6.79629 13.9285 8.09745C14.2131 8.15552 14.4887 8.24034 14.7537 8.35407C14.8344 8.38811 14.9134 8.42468 14.9906 8.46376Z"
          fill="#57965C"/>
    <path d="M12.9257 16C12.2973 16 11.7297 15.8476 11.2227 15.5429C10.7157 15.2382 10.317 14.8203 10.0267 14.2892C9.74066 13.7537 9.59766 13.1573 9.59766 12.5C9.59766 11.8427 9.74066 11.2484 10.0267 10.7174C10.317 10.1819 10.7157 9.76182 11.2227 9.45709C11.7297 9.15236 12.2973 9 12.9257 9C13.4587 9 13.9375 9.09142 14.3622 9.27425C14.7868 9.45274 15.14 9.72264 15.4217 10.084C15.7033 10.4409 15.8962 10.8806 16.0002 11.403H14.9602C14.8648 11.0808 14.7153 10.8109 14.5117 10.5933C14.308 10.3756 14.0697 10.2146 13.7967 10.1101C13.5237 10.0012 13.2333 9.94683 12.9257 9.94683C12.4967 9.94683 12.111 10.0557 11.7687 10.2733C11.4307 10.491 11.1663 10.7935 10.9757 11.181C10.785 11.5684 10.6897 12.0081 10.6897 12.5C10.6897 12.9876 10.785 13.4251 10.9757 13.8125C11.1663 14.1999 11.4307 14.5047 11.7687 14.7267C12.111 14.9443 12.4967 15.0532 12.9257 15.0532C13.2333 15.0532 13.5237 15.0009 13.7967 14.8965C14.0697 14.7876 14.308 14.6244 14.5117 14.4067C14.7153 14.1891 14.8648 13.9192 14.9602 13.597H16.0002C15.9005 14.102 15.7055 14.5351 15.4152 14.8965C15.1248 15.2578 14.7652 15.532 14.3362 15.7192C13.9072 15.9064 13.437 16 12.9257 16Z"
          fill="#CED0D6"/>
</svg>
