<?xml version="1.0" encoding="utf-8"?>
<svg version="1.1" id="Layer_1" xmlns="http://www.w3.org/2000/svg" xmlns:xlink="http://www.w3.org/1999/xlink" x="0px" y="0px"
	 width="64px" height="64px" viewBox="0 0 64 64" enable-background="new 0 0 64 64" xml:space="preserve">
<path fill-rule="evenodd" clip-rule="evenodd" fill="#57965C" d="M18.8,26.2c2.9-1.1,5.7-1.4,8.2-1.5c0.3,0,0.6,0,0.9,0
	c2.1-0.1,4-0.2,5.9-0.7l0,0c4.8-1.1,10.2-4.8,12.2-9l3.7-7.7l2.7,8.1c1.5,4.4,3.2,10.3,3.7,16.2c0.5,5.9-0.2,12.4-4.1,17.5
	c-4,5.3-10.1,6.8-15.6,7.2c-2.8,0.2-5.6,0.1-8.1,0.1l-1,0c-2.2-0.1-4.1-0.1-5.8-0.1l0,0l-0.2,0c-0.1,0-0.4,0-0.6,0.1
	c-0.5,0-1.2,0.1-1.8,0.2c-0.7,0.1-1.5,0.1-2.3-0.2c-0.8-0.3-1.3-0.8-1.7-1.2c-0.6-0.7-1-1.6-1.1-1.9l-0.1-0.3
	c-0.1-0.1-0.1-0.2-0.1-0.3c-4.7-2.4-6.4-8.2-5.7-13.1C8.6,34.2,12.1,28.8,18.8,26.2z M27.5,52.9c7.8,0.2,16.9,0.5,21.8-5.9
	c6.3-8.4,2.8-21.9-0.1-30.5c-2.6,5.4-9,9.6-14.5,10.9c-2.3,0.5-4.4,0.7-6.5,0.8c-2.7,0.1-5.3,0.3-8,1.3C9.1,33.6,9.3,46.6,15.3,49.6
	l0.4,0.2c0,0,8.9-1.8,13.7-3.6c7.1-2.6,15-9.1,17.6-16.7c-1.4,7.9-8.1,15.4-14.9,18.9c-2.3,1.2-4.3,1.8-6.9,2.6
	c-1.5,0.5-3.3,1-5.5,1.7c-0.7,0.3-1.3,0.5-1.3,0.5c1.5-0.2,3-0.3,3-0.3C23.3,52.8,25.4,52.9,27.5,52.9z"/>
<path fill-rule="evenodd" clip-rule="evenodd" fill="#253627" d="M49.3,47c-6.2,8.2-19.4,5.5-27.8,5.8c0,0-1.5,0.1-3,0.3
	c0,0,0.6-0.2,1.3-0.5c5.9-2.1,8.7-2.5,12.4-4.3c6.8-3.5,13.5-11,14.9-18.9c-2.6,7.6-10.4,14.1-17.6,16.7c-4.9,1.8-13.7,3.6-13.7,3.6
	l-0.4-0.2c-6-2.9-6.2-16,4.7-20.2c4.8-1.8,9.4-0.8,14.6-2.1c5.5-1.3,11.9-5.5,14.5-10.9C52.1,25.1,55.6,38.7,49.3,47z"/>
</svg>
