<?xml version="1.0" encoding="utf-8"?>
<!-- Generator: Adobe Illustrator 25.0.1, SVG Export Plug-In . SVG Version: 6.00 Build 0)  -->
<svg version="1.0" id="Layer_1" xmlns="http://www.w3.org/2000/svg" xmlns:xlink="http://www.w3.org/1999/xlink" x="0px" y="0px"
	 width="97.1px" height="97.1px" viewBox="0 0 97.1 97.1" enable-background="new 0 0 97.1 97.1" xml:space="preserve">
<path fill="#6DB33F" d="M88.4,5.8c-1.3,3.2-3.1,6.3-5.2,9.1C64.6-4.4,33.9-4.9,14.7,13.7S-5.1,63,13.5,82.2c0.6,0.7,1.3,1.3,2,1.9
	l1.8,1.6c20.4,17.2,51,14.6,68.2-5.8c6.6-7.8,10.6-17.6,11.3-27.8C98.2,40,94.5,24.4,88.4,5.8z M22.5,84.6c-1.4,1.8-4,2-5.8,0.6
	s-2-4-0.6-5.8s4-2,5.8-0.6C23.6,80.2,23.9,82.8,22.5,84.6z M88.1,70.1C76.2,86,50.6,80.6,34.3,81.4c0,0-2.9,0.2-5.8,0.6
	c0,0,1.1-0.5,2.5-1c11.5-4,16.9-4.8,23.9-8.4C68,65.9,81.1,51.2,83.7,36c-5,14.6-20.2,27.2-34,32.3c-9.5,3.5-26.6,6.9-26.6,6.9
	l-0.7-0.4c-11.6-5.7-12-30.9,9.2-39c9.3-3.6,18.1-1.6,28.2-4c10.7-2.5,23.1-10.5,28.1-21C93.5,27.7,100.3,53.9,88.1,70.1z"/>
<path fill="#6DB33F" d="M85.5,79.9c6.6-7.8,10.6-17.6,11.3-27.8"/>
<path fill="#FFFFFF" d="M88.1,70.1C76.2,86,50.6,80.6,34.3,81.4c0,0-2.9,0.2-5.8,0.6c0,0,1.1-0.5,2.5-1c11.5-4,16.9-4.8,23.9-8.4
	C68,65.9,81.1,51.2,83.7,36c-5,14.6-20.2,27.2-34,32.3c-9.5,3.5-26.6,6.9-26.6,6.9l-0.7-0.4c-11.6-5.7-12-30.9,9.2-39
	c9.3-3.6,18.1-1.6,28.2-4c10.7-2.5,23.1-10.5,28.1-21C93.5,27.7,100.3,53.9,88.1,70.1z"/>
<path fill="#FFFFFF" d="M22.5,84.6c-1.4,1.8-4,2-5.8,0.6s-2-4-0.6-5.8s4-2,5.8-0.6C23.6,80.2,23.9,82.8,22.5,84.6z"/>
</svg>
