<svg width="12" height="12" viewBox="0 0 12 12" fill="none" xmlns="http://www.w3.org/2000/svg">
<g clip-path="url(#clip0_3380_47604)">
<path d="M8 9C8.55229 9 9 8.55229 9 8C9 7.44771 8.55229 7 8 7C7.44771 7 7 7.44771 7 8C7 8.55229 7.44771 9 8 9Z" fill="#6C707E"/>
<path fill-rule="evenodd" clip-rule="evenodd" d="M9.12161 11.6756C9.04842 11.8707 8.86186 12 8.65344 12H7.34644C7.13802 12 6.95146 11.8707 6.87828 11.6756L6.62878 11.0102C6.54487 10.7865 6.31433 10.6534 6.07858 10.6926L5.37765 10.8092C5.17206 10.8434 4.96681 10.7464 4.8626 10.5659L4.2091 9.43405C4.10489 9.25355 4.12357 9.02734 4.25599 8.86639L4.70742 8.31767C4.85925 8.13311 4.85925 7.86691 4.70742 7.68235L4.25597 7.13361C4.12355 6.97266 4.10487 6.74645 4.20908 6.56595L4.86258 5.43405C4.96679 5.25355 5.17204 5.15663 5.37763 5.19083L6.07858 5.30742C6.31433 5.34664 6.54487 5.21353 6.62878 4.98976L6.87828 4.32444C6.95146 4.12929 7.13802 4 7.34644 4H8.65344C8.86186 4 9.04842 4.12929 9.12161 4.32444L9.3711 4.98976C9.45502 5.21353 9.68556 5.34664 9.92131 5.30742L10.6222 5.19083C10.8278 5.15663 11.0331 5.25355 11.1373 5.43405L11.7908 6.56595C11.895 6.74645 11.8763 6.97266 11.7439 7.13361L11.2925 7.68235C11.1406 7.86691 11.1406 8.13311 11.2925 8.31767L11.7439 8.86639C11.8763 9.02734 11.895 9.25355 11.7908 9.43405L11.1373 10.5659C11.0331 10.7464 10.8278 10.8434 10.6222 10.8092L9.92131 10.6926C9.68556 10.6534 9.45502 10.7865 9.3711 11.0102L9.12161 11.6756ZM7.69294 11H8.30694L8.43477 10.6591C8.68652 9.9878 9.37813 9.58849 10.0854 9.70613L10.4445 9.76587L10.7515 9.23413L10.5202 8.953C10.0647 8.39932 10.0647 7.6007 10.5202 7.04703L10.7515 6.76587L10.4445 6.23413L10.0854 6.29387C9.37814 6.41151 8.68652 6.0122 8.43477 5.34088L8.30694 5H7.69294L7.56511 5.34088C7.31337 6.0122 6.62175 6.41151 5.91449 6.29387L5.55536 6.23413L5.24836 6.76587L5.47966 7.04703C5.93517 7.6007 5.93517 8.39932 5.47966 8.953L5.24838 9.23413L5.55538 9.76587L5.91449 9.70613C6.62174 9.58849 7.31337 9.9878 7.56511 10.6591L7.69294 11Z" fill="#6C707E"/>
<path fill-rule="evenodd" clip-rule="evenodd" d="M8.30688 11H7.69288L7.56505 10.6591C7.3133 9.9878 6.62168 9.58849 5.91443 9.70613L5.55531 9.76587L5.24831 9.23413L5.4796 8.953C5.93511 8.39932 5.93511 7.6007 5.4796 7.04703L5.24829 6.76587L5.55529 6.23413L5.91443 6.29387C6.62168 6.41151 7.3133 6.0122 7.56505 5.34088L7.69288 5H8.30688L8.43471 5.34088C8.68645 6.0122 9.37807 6.41151 10.0853 6.29387L10.4445 6.23413L10.7515 6.76587L10.5202 7.04703C10.0646 7.6007 10.0646 8.39932 10.5202 8.953L10.7514 9.23413L10.4444 9.76587L10.0853 9.70613C9.37807 9.58849 8.68645 9.9878 8.43471 10.6591L8.30688 11ZM8.99994 8C8.99994 8.55229 8.55222 9 7.99994 9C7.44765 9 6.99994 8.55229 6.99994 8C6.99994 7.44771 7.44765 7 7.99994 7C8.55222 7 8.99994 7.44771 8.99994 8Z" fill="#EBECF0"/>
<path d="M3.5 2.0004C3.5 2.82823 2.82877 3.5 2.0004 3.5C1.17123 3.5 0.5 2.82823 0.5 1.9996C0.5 1.17136 1.17164 0.5 2.0004 0.5C2.82864 0.5 3.5 1.17164 3.5 2.0004Z" fill="#FFF5F5" stroke="#E35252"/>
<path d="M2.0006 5C3.65756 5 5 3.65636 5 2.0006C5 1.26319 4.73412 0.587833 4.29295 0.0653491C6.17069 -0.245997 8.1803 0.570904 9.78951 2.18008C10.4365 2.82702 10.96 3.5359 11.3349 4.27457C10.4501 3.482 9.28136 3 8 3C5.23858 3 3 5.23858 3 8C3 9.31639 3.50872 10.514 4.34029 11.4069C3.54672 11.0338 2.79528 10.4978 2.1335 9.83599C0.580111 8.28263 -0.251268 6.21769 0.0674157 4.29461C0.589445 4.73475 1.26386 5 2.0006 5Z" fill="#F2FCF3"/>
<path d="M1.00992 4.83272C0.66203 4.71114 0.343424 4.52732 0.0674157 4.29461C-0.251268 6.21769 0.580111 8.28263 2.1335 9.83599C2.79528 10.4978 3.54672 11.0338 4.34029 11.4069C3.83593 10.8653 3.45033 10.2117 3.22497 9.48743C3.09412 9.3737 2.96584 9.25412 2.8406 9.12887C1.80075 8.08905 1.16285 6.82517 1.02736 5.60902C0.998405 5.34913 0.991988 5.08973 1.00992 4.83272Z" fill="#5FB865"/>
<path d="M4.8322 1.00852C5.06596 0.993108 5.30111 0.998734 5.53637 1.02391C6.72186 1.15077 7.98076 1.78557 9.08241 2.88719C9.18232 2.9871 9.27849 3.08818 9.37088 3.19027C10.1095 3.40038 10.7784 3.77604 11.3349 4.27457C10.96 3.5359 10.4365 2.82702 9.78951 2.18008C8.1803 0.570904 6.17069 -0.245997 4.29295 0.0653491C4.52613 0.341503 4.71033 0.660362 4.8322 1.00852Z" fill="#5FB865"/>
</g>
<defs>
<clipPath id="clip0_3380_47604">
<rect width="12" height="12" fill="white"/>
</clipPath>
</defs>
</svg>
