<svg width="12" height="12" viewBox="0 0 12 12" fill="none" xmlns="http://www.w3.org/2000/svg">
<path fill-rule="evenodd" clip-rule="evenodd" d="M1.09994 5H2C2.55228 5 3 5.44772 3 6V8C3 8.55228 2.55228 9 2 9H1C0.447715 9 0 8.55229 0 8V6C0 5.81645 0.00825644 5.63471 0.0244394 5.45512C0.300066 2.3965 2.86989 0 6 0C9.31371 0 12 2.68629 12 6V8C12 8.55229 11.5523 9 11 9H10C9.44771 9 9 8.55228 9 8V6C9 5.44772 9.44771 5 10 5H10.9C10.4367 2.71776 8.41896 1 6 1C3.58113 1 1.56302 2.71795 1.09994 5ZM11 6H10V8H11V6ZM1 6V8H2V6H1Z" fill="#6C707E"/>
<path d="M2.85632 4.19209C2.90553 4.13678 2.957 4.08221 3.01076 4.02845C4.6301 2.40914 6.88908 2.81617 8.52632 4.45338C8.55856 4.48562 8.59034 4.51809 8.62165 4.55078C8.23869 4.91512 7.99998 5.42969 7.99998 6V8C7.99998 8.79189 8.46021 9.47629 9.12779 9.80031C9.07454 9.86016 9.01871 9.91934 8.96024 9.97781C7.30512 11.6329 4.98756 11.1225 3.42231 9.55732C3.39654 9.53155 3.37106 9.50557 3.34589 9.47938C3.74775 9.11357 3.99998 8.58624 3.99998 8V6C3.99998 5.20186 3.53245 4.51291 2.85632 4.19209Z" fill="#F2FCF3"/>
<path d="M8.07938 5.44021C7.99807 5.34598 7.91135 5.25263 7.81922 5.1605C7.12688 4.46818 6.35501 4.08891 5.65542 4.01405C5.12825 3.95763 4.60197 4.06741 4.11209 4.40501L8.02513 8.31804C8.12966 8.97225 8.55146 9.52058 9.12779 9.80031C9.07454 9.86016 9.01871 9.91934 8.96024 9.97781C7.30512 11.6329 4.98756 11.1225 3.42231 9.55732C3.39654 9.53155 3.37106 9.50557 3.34589 9.47938C3.60211 9.24615 3.7975 8.94726 3.90547 8.60931C3.97619 8.69126 4.05086 8.77166 4.12941 8.85021C4.78436 9.50514 5.55641 9.89695 6.27525 9.98213C6.82541 10.0473 7.37351 9.93928 7.87904 9.58617L3.97483 5.68196C3.86934 5.02177 3.44076 4.46941 2.85632 4.19209C2.90553 4.13678 2.957 4.08221 3.01076 4.02845C4.6301 2.40914 6.88908 2.81617 8.52632 4.45338C8.55856 4.48562 8.59034 4.51809 8.62165 4.55078C8.36917 4.79099 8.17939 5.09649 8.07938 5.44021Z" fill="#5FB865"/>
</svg>
