<svg width="12" height="12" viewBox="0 0 12 12" fill="none" xmlns="http://www.w3.org/2000/svg">
<path fill-rule="evenodd" clip-rule="evenodd" d="M7.89475 2.09004C9.12268 3.31794 9.46153 4.99204 8.2202 6.23336C6.97886 7.47467 5.24069 7.09191 4.06675 5.91799C2.89281 4.74408 2.54359 2.98581 3.75809 1.77134C4.97259 0.556859 6.66682 0.862131 7.89475 2.09004Z" fill="#F2FCF3"/>
<path fill-rule="evenodd" clip-rule="evenodd" d="M7.89475 2.09004C9.12268 3.31794 9.46153 4.99204 8.2202 6.23336C6.97886 7.47467 5.24069 7.09191 4.06675 5.91799C2.89281 4.74408 2.54359 2.98581 3.75809 1.77134C4.97259 0.556859 6.66682 0.862131 7.89475 2.09004ZM7.18765 2.79715C7.68175 3.29124 7.93827 3.81788 7.98991 4.27012C8.0221 4.55204 7.98016 4.83762 7.82554 5.11843L4.87536 2.16825C5.14828 2.02193 5.43143 1.97877 5.71498 2.00912C6.17162 2.05798 6.69998 2.30948 7.18765 2.79715ZM4.16776 2.87487L7.11891 5.82601C6.8347 5.98093 6.53667 6.02398 6.23587 5.98833C5.76251 5.93224 5.23314 5.67016 4.77385 5.21088C4.32097 4.75801 4.06386 4.22718 4.01061 3.74915C3.97692 3.44677 4.02114 3.15128 4.16776 2.87487Z" fill="#5FB865"/>
<path fill-rule="evenodd" clip-rule="evenodd" d="M10 1.5C10 1.22386 10.2239 1 10.5 1H11C11.5523 1 12 1.44772 12 2V6C12 6.55228 11.5523 7 11 7H10.5C10.2239 7 10 6.77614 10 6.5C10 6.22386 10.2239 6 10.5 6H11V2H10.5C10.2239 2 10 1.77614 10 1.5Z" fill="#6C707E"/>
<path fill-rule="evenodd" clip-rule="evenodd" d="M0 2C0 1.44772 0.447715 1 1 1H1.5C1.77614 1 2 1.22386 2 1.5C2 1.77614 1.77614 2 1.5 2L1 2V6H1.5C1.77614 6 2 6.22386 2 6.5C2 6.77614 1.77614 7 1.5 7H1C0.447715 7 0 6.55228 0 6V2Z" fill="#6C707E"/>
<path d="M4 11.5L6 8.5L8 11.5H4Z" fill="#EBECF0"/>
<path fill-rule="evenodd" clip-rule="evenodd" d="M6 8C6.16718 8 6.32329 8.08355 6.41603 8.22265L8.41603 11.2226C8.51831 11.3761 8.52785 11.5734 8.44084 11.7359C8.35383 11.8985 8.1844 12 8 12H4C3.8156 12 3.64617 11.8985 3.55916 11.7359C3.47215 11.5734 3.48169 11.3761 3.58398 11.2226L5.58398 8.22265C5.67671 8.08355 5.83282 8 6 8ZM4.93426 11H7.06574L6 9.40139L4.93426 11Z" fill="#6C707E"/>
</svg>
