<svg width="12" height="12" viewBox="0 0 12 12" fill="none" xmlns="http://www.w3.org/2000/svg">
<g clip-path="url(#clip0_3363_48270)">
<path fill-rule="evenodd" clip-rule="evenodd" d="M8.14645 5.14645C8.34171 4.95118 8.65829 4.95118 8.85355 5.14645L11.8536 8.14645C12.0488 8.34171 12.0488 8.65829 11.8536 8.85355L8.85355 11.8536C8.65829 12.0488 8.34171 12.0488 8.14645 11.8536C7.95118 11.6583 7.95118 11.3417 8.14645 11.1464L10.2929 8.99998H4.5C4.22386 8.99998 4 8.77612 4 8.49998C4 8.22384 4.22386 7.99998 4.5 7.99998H10.2929L8.14645 5.85355C7.95118 5.65829 7.95118 5.34171 8.14645 5.14645Z" fill="#6C707E"/>
<path d="M12 6.87867C11.9965 5.23896 11.1766 3.56717 9.78951 2.18008C7.33364 -0.275738 3.94518 -0.886283 1.51618 1.54267C-0.912826 3.97163 -0.214374 7.48816 2.1335 9.83599C3.53254 11.235 5.33228 12.0722 7.0837 11.9951C6.90006 11.4686 7.01861 10.8601 7.43934 10.4393L7.8787 9.99998H4.5C3.67157 9.99998 3 9.32841 3 8.49998C3 7.67155 3.67157 6.99998 4.5 6.99998H7.87866L7.43934 6.56066C6.85355 5.97487 6.85355 5.02513 7.43934 4.43934C8.02513 3.85355 8.97487 3.85355 9.56066 4.43934L12 6.87867Z" fill="#F2FCF3"/>
<path d="M12 6.87867C11.9965 5.23896 11.1766 3.56717 9.78951 2.18008C7.33364 -0.275738 3.94518 -0.886283 1.51618 1.54267C-0.912826 3.97163 -0.214374 7.48816 2.1335 9.83599C3.53254 11.235 5.33228 12.0722 7.0837 11.9951C6.97081 11.6714 6.97212 11.3167 7.08763 10.9938C6.84401 11.0074 6.59899 10.9987 6.35406 10.9697C5.14426 10.8264 3.88686 10.1751 2.8406 9.12887C1.80075 8.08905 1.16285 6.82517 1.02736 5.60902C0.910352 4.5588 1.16139 3.51663 1.90023 2.60733L6.29287 6.99998H7.70709L2.609 1.90189C3.51507 1.16888 4.52473 0.915652 5.53637 1.02391C6.72186 1.15077 7.98076 1.78557 9.08241 2.88719C9.96795 3.77272 10.5598 4.75028 10.8305 5.70921L12 6.87867Z" fill="#5FB865"/>
</g>
<defs>
<clipPath id="clip0_3363_48270">
<rect width="12" height="12" fill="white"/>
</clipPath>
</defs>
</svg>
