<svg width="12" height="12" viewBox="0 0 12 12" fill="none" xmlns="http://www.w3.org/2000/svg">
<g clip-path="url(#clip0_3376_47437)">
<path d="M10.4404 10.4667C12.9231 7.98408 12.2454 4.63589 9.78951 2.18008C7.33364 -0.275738 3.94518 -0.886283 1.51618 1.54267C0.0426342 3.01619 -0.279948 4.88995 0.21845 6.66023L2.43934 4.43934C3.02513 3.85355 3.97488 3.85355 4.56066 4.43934C5.14645 5.02513 5.14645 5.97487 4.56066 6.56066L4.1213 7.00002L7.5 7.00002C8.32843 7.00002 9 7.67159 9 8.50002C9 9.32845 8.32843 10 7.5 10H4.12134L4.56066 10.4393C4.89743 10.7761 5.04059 11.2332 4.99014 11.6722C6.842 12.3158 8.84608 12.061 10.4404 10.4667Z" fill="#F2FCF3"/>
<path d="M10.4404 10.4667C12.9231 7.98408 12.2454 4.63589 9.78951 2.18008C7.33364 -0.275738 3.94518 -0.886283 1.51618 1.54267C0.0426342 3.01619 -0.279948 4.88995 0.21845 6.66023L1.05621 5.82247C1.04489 5.75119 1.03527 5.68003 1.02736 5.60902C0.910352 4.5588 1.16139 3.51663 1.90023 2.60733L3.30548 4.01259C3.7513 3.95461 4.21819 4.09686 4.56066 4.43934C4.90314 4.78182 5.04539 5.2487 4.98741 5.69452L6.29291 7.00002H7.5C7.57602 7.00002 7.65071 7.00567 7.72369 7.01659L2.609 1.90189C3.51507 1.16888 4.52473 0.915652 5.53637 1.02391C6.72186 1.15077 7.98076 1.78557 9.08241 2.88719C10.1905 3.99523 10.8387 5.24737 10.9734 6.42679C11.0882 7.43289 10.8392 8.44652 10.0819 9.37477L8.98343 8.27633C8.99435 8.34931 9 8.424 9 8.50002C9 8.83955 8.88719 9.15273 8.69702 9.40412L9.37634 10.0835C8.44471 10.8467 7.39845 11.0935 6.35406 10.9697C5.7299 10.8958 5.09307 10.6866 4.4791 10.3578L4.56066 10.4393C4.89743 10.7761 5.04059 11.2332 4.99014 11.6722C6.842 12.3158 8.84608 12.061 10.4404 10.4667Z" fill="#5FB865"/>
<path d="M7.29291 8.00002L7.96835 8.67546C7.98881 8.62087 8 8.56175 8 8.50002C8 8.22388 7.77614 8.00002 7.5 8.00002H7.29291Z" fill="#5FB865"/>
<path fill-rule="evenodd" clip-rule="evenodd" d="M3.85355 11.8536C3.65829 12.0488 3.34171 12.0488 3.14645 11.8536L0.146447 8.85355C-0.0488154 8.65829 -0.0488154 8.34171 0.146447 8.14645L3.14645 5.14645C3.34171 4.95118 3.65829 4.95118 3.85355 5.14645C4.04882 5.34171 4.04882 5.65829 3.85355 5.85355L1.70709 8.00002L7.5 8.00002C7.77614 8.00002 8 8.22388 8 8.50002C8 8.77616 7.77614 9.00002 7.5 9.00002L1.70713 9.00002L3.85355 11.1464C4.04882 11.3417 4.04882 11.6583 3.85355 11.8536Z" fill="#6C707E"/>
</g>
<defs>
<clipPath id="clip0_3376_47437">
<rect width="12" height="12" fill="white"/>
</clipPath>
</defs>
</svg>
