<svg width="12" height="12" viewBox="0 0 12 12" fill="none" xmlns="http://www.w3.org/2000/svg">
<path d="M4.15601 10.7H5.80302V9.08064C6.07856 9.14989 6.36936 9.18538 6.67071 9.18538C7.6688 9.18538 8.56176 8.79689 9.19703 8.09558C9.62358 7.62468 9.90881 7.04169 10.0481 6.39637C10.9516 5.76461 11.3037 5 11.3037 5C11.3037 5 12.789 8.78038 11.4211 10.7264C10.6774 11.7844 9.43191 12.0343 8.00805 11.9964C7.35039 11.9789 6.62225 11.9449 5.96901 11.8127C10.3643 10.9368 10.9005 7.49314 10.9005 7.49314C10.9005 7.49314 9.94157 10.7264 4.82146 11.4027C4.52993 11.2274 4.29806 10.9988 4.15601 10.7Z" fill="#5FB865"/>
<path d="M6.67066 2.7C5.82688 2.7 5.16321 3.07098 4.7825 3.69832V2.82281H3.80005V9.7H4.80297V7.22032C5.18674 7.82719 5.84172 8.18538 6.67066 8.18538C8.129 8.18538 9.14727 7.06988 9.14727 5.44269C9.14727 3.8155 8.129 2.7 6.67066 2.7ZM6.46087 7.2848C5.48353 7.2848 4.80297 6.5326 4.80297 5.44269C4.80297 4.35278 5.48353 3.60059 6.46087 3.60059C7.43309 3.60059 8.10341 4.35278 8.10341 5.44269C8.10341 6.5326 7.43309 7.2848 6.46087 7.2848Z" fill="#F28C35"/>
<path d="M0 6C0 8.38718 1.3941 10.4487 3.41257 11.415C3.35432 11.3253 3.30079 11.2302 3.25285 11.1294L2.57324 9.7H3.80005V2.8228H4.78251V3.69832C5.16321 3.07098 5.82688 2.7 6.67066 2.7C8.129 2.7 9.14727 3.81549 9.14727 5.44269C9.14727 5.69391 9.123 5.93294 9.07658 6.15754L9.15338 5.80176L9.475 5.57686C9.82189 5.33429 10.0617 5.06685 10.2123 4.86438C10.2873 4.76364 10.3386 4.68104 10.3687 4.629C10.3837 4.60307 10.3932 4.58505 10.3976 4.57655L10.3991 4.57361L11.1561 2.92981C10.109 1.17519 8.19175 0 6 0C2.68629 0 0 2.68629 0 6Z" fill="#FFF4EB"/>
<path d="M8.45585 7.42423C8.68567 7.17052 8.86503 6.86051 8.98343 6.50521C8.86536 6.86013 8.68656 7.16954 8.45585 7.42423Z" fill="#FFF4EB"/>
<path d="M4.80297 5.44269C4.80297 6.5326 5.48353 7.28479 6.46087 7.28479C7.43309 7.28479 8.10341 6.5326 8.10341 5.44269C8.10341 4.35277 7.43309 3.60058 6.46087 3.60058C5.48353 3.60058 4.80297 4.35277 4.80297 5.44269Z" fill="#FFF4EB"/>
<path d="M0 6C0 8.38718 1.3941 10.4487 3.41257 11.415L2.63691 9.7C1.63128 8.7854 1 7.46642 1 6C1 3.23858 3.23858 1 6 1C8.08478 1 9.87154 2.27592 10.622 4.08948L11.1561 2.92981C10.109 1.17519 8.19175 0 6 0C2.68629 0 0 2.68629 0 6Z" fill="#F28C35"/>
</svg>
