<svg width="12" height="12" viewBox="0 0 12 12" fill="none" xmlns="http://www.w3.org/2000/svg">
<g clip-path="url(#clip0_3380_47644)">
<path d="M10.0657 6.49147C9.25361 6.49147 8.636 6.89305 8.29593 7.56112C8.00368 6.88832 7.40552 6.49147 6.6071 6.49147C5.84915 6.49147 5.28147 6.8552 4.96189 7.49436V6.61762H4V12H4.99869V8.83575C4.99869 7.92642 5.5138 7.35349 6.32852 7.35349C7.0749 7.35349 7.50591 7.86335 7.50591 8.68332V12H8.49409V8.83575C8.49409 7.92642 9.01971 7.35349 9.82392 7.35349C10.5756 7.35349 11.0013 7.86335 11.0013 8.68332V12H12V8.60448C12 7.3167 11.2168 6.49147 10.0657 6.49147Z" fill="#6C707E"/>
<path d="M11.9449 6.14459C11.7396 4.74706 10.9699 3.36048 9.78951 2.18008C7.33364 -0.275738 3.94518 -0.886283 1.51618 1.54267C-0.912826 3.97163 -0.214374 7.48816 2.1335 9.83599C2.40803 10.1105 2.698 10.3634 3 10.592V5.61762H5.72812C6.0017 5.53472 6.29608 5.49147 6.6071 5.49147C7.26049 5.49147 7.84902 5.68098 8.32185 6.02888C8.80506 5.68412 9.39912 5.49147 10.0657 5.49147C10.7703 5.49147 11.427 5.71177 11.9449 6.14459Z" fill="#F2FCF3"/>
<path d="M11.9449 6.14459C11.7396 4.74706 10.9699 3.36048 9.78951 2.18008C7.33364 -0.275738 3.94518 -0.886283 1.51618 1.54267C-0.912826 3.97163 -0.214374 7.48816 2.1335 9.83599C2.40803 10.1105 2.698 10.3634 3 10.592V9.28369C2.94635 9.23309 2.89321 9.18148 2.8406 9.12887C1.80075 8.08905 1.16285 6.82517 1.02736 5.60902C0.910352 4.5588 1.16139 3.51663 1.90023 2.60733L4.91051 5.61762H5.72812C5.88594 5.5698 6.05068 5.53517 6.22154 5.51443L2.609 1.90189C3.51507 1.16888 4.52473 0.915652 5.53637 1.02391C6.72186 1.15077 7.98076 1.78557 9.08241 2.88719C9.92622 3.73099 10.5034 4.65835 10.7901 5.57352C11.2167 5.67354 11.6099 5.86459 11.9449 6.14459Z" fill="#5FB865"/>
</g>
<defs>
<clipPath id="clip0_3380_47644">
<rect width="12" height="12" fill="white"/>
</clipPath>
</defs>
</svg>
