<svg width="12" height="12" viewBox="0 0 12 12" fill="none" xmlns="http://www.w3.org/2000/svg">
<path d="M11.4211 10.7264C12.789 8.78038 11.3036 5 11.3036 5C11.3036 5 10.7009 6.3089 9.04912 6.9166C7.60551 7.44774 6.64125 7.00068 5.47168 7.57885C4.49036 8.06395 4 8.81968 4 9.95512C4 10.649 4.3238 11.1034 4.82142 11.4027C9.94153 10.7264 10.9005 7.49314 10.9005 7.49314C10.9005 7.49314 10.3642 10.9368 5.96896 11.8127C6.6222 11.9449 7.35034 11.9789 8.00801 11.9964C9.43186 12.0343 10.6774 11.7844 11.4211 10.7264Z" fill="#5FB865"/>
<path d="M7.48507 2.12126C7.55204 1.85337 7.38916 1.5819 7.12127 1.51492C6.85337 1.44795 6.5819 1.61083 6.51493 1.87873L5.34937 6.54098C5.73865 6.38968 6.10779 6.31732 6.44573 6.27864L7.48507 2.12126Z" fill="#F28C35"/>
<path d="M8.85344 3.14645L10.3565 4.64952C10.35 4.6605 10.3427 4.6725 10.3346 4.68544C10.2775 4.77727 10.1833 4.91358 10.0471 5.06732C9.95144 5.17533 9.83594 5.29098 9.69854 5.40577L8.14633 3.85355C7.95107 3.65829 7.95107 3.34171 8.14633 3.14645C8.34159 2.95118 8.65817 2.95118 8.85344 3.14645Z" fill="#F28C35"/>
<path d="M1.70711 6L3.59122 7.88411C3.56698 7.91953 3.54337 7.95556 3.5204 7.99223C3.35179 8.26138 3.2278 8.54859 3.14324 8.85035L0.646447 6.35355C0.451184 6.15829 0.451184 5.84171 0.646447 5.64645L3.14645 3.14645C3.34171 2.95118 3.65829 2.95118 3.85355 3.14645C4.04882 3.34171 4.04882 3.65829 3.85355 3.85355L1.70711 6Z" fill="#F28C35"/>
</svg>
