<svg width="16" height="16" viewBox="0 0 16 16" fill="none" xmlns="http://www.w3.org/2000/svg">
<path d="M12.4453 3.55466C15.3047 6.41406 16.0937 10.3125 13.2031 13.2031C10.3125 16.0938 6.26492 15.2024 3.53125 12.4688C0.797582 9.73508 -0.0156384 5.64064 2.81249 2.81251C5.64062 -0.015625 9.58588 0.695257 12.4453 3.55466Z" fill="#F2FCF3"/>
<path fill-rule="evenodd" clip-rule="evenodd" d="M12.6566 5.32424L13.4609 4.73002C13.1605 4.32341 12.8208 3.93008 12.4453 3.55466C12.0711 3.18043 11.6783 2.843 11.2718 2.54549L10.6812 3.35245C11.0448 3.61855 11.3988 3.92234 11.7382 4.26177C12.0801 4.60365 12.3871 4.95943 12.6566 5.32424ZM8.89097 2.3754L9.23806 1.43757C8.23374 1.06587 7.19903 0.930744 6.19366 1.06989L6.33075 2.06044C7.15409 1.94649 8.02244 2.05396 8.89097 2.3754ZM4.54527 2.70421L4.02349 1.85113C3.60286 2.1084 3.19737 2.4277 2.81255 2.81251C2.42908 3.19598 2.11255 3.60274 1.85868 4.02623L2.71638 4.54039C2.84894 4.31925 3.0034 4.10145 3.18156 3.88858L12.1277 12.8347C11.9117 13.0168 11.6918 13.1742 11.4693 13.3092L11.988 14.1642C12.4098 13.9083 12.8168 13.5895 13.2032 13.2031C13.5909 12.8154 13.9124 12.4096 14.1716 11.9906L13.3211 11.4645C13.1829 11.688 13.0217 11.9097 12.8357 12.1285L3.88779 3.1806C4.10344 2.99832 4.32308 2.84011 4.54527 2.70421ZM2.0896 6.33227L1.09829 6.20075C0.964479 7.20934 1.09757 8.247 1.45252 9.24498L2.3947 8.90987C2.08632 8.04284 1.97909 7.16525 2.0896 6.33227ZM3.53131 12.4688C3.16135 12.0988 2.82657 11.7039 2.53122 11.2906L3.34483 10.7092C3.60761 11.0769 3.90664 11.4299 4.23842 11.7616C4.57272 12.0959 4.92743 12.3982 5.29638 12.6645L4.71113 13.4754C4.29776 13.177 3.90243 12.8399 3.53131 12.4688ZM7.09869 13.6313L6.75708 14.5711C7.756 14.9342 8.79536 15.0733 9.80956 14.937L9.67634 13.9459C8.84239 14.058 7.96614 13.9466 7.09869 13.6313ZM13.9748 9.67778L14.9651 9.81657C15.1068 8.80553 14.9655 7.76922 14.5855 6.76393L13.6501 7.11751C13.9786 7.98661 14.0903 8.85352 13.9748 9.67778Z" fill="#5FB865"/>
</svg>
