<svg width="16" height="16" viewBox="0 0 16 16" fill="none" xmlns="http://www.w3.org/2000/svg">
<path d="M14.3991 8.57362L14.9689 7.33615C14.6345 3.78152 11.6421 1 8 1C4.13401 1 1 4.13401 1 8C1 11.5874 3.69857 14.5445 7.17648 14.9521C7.06314 14.6568 7 14.3248 7 13.9551C7 13.4188 7.08776 12.9099 7.28544 12.4436C7.51816 12.4807 7.75682 12.5 8 12.5C9.69953 12.5 11.179 11.5579 11.9446 10.1674C12.1903 10.1328 12.4354 10.0769 12.7038 9.97811C13.3435 9.74276 13.7754 9.37422 14.0472 9.06732C14.1834 8.91358 14.2776 8.77727 14.3348 8.68544C14.3632 8.63974 14.3821 8.60576 14.392 8.58708L14.3991 8.57362Z" fill="#E7EFFD"/>
<path d="M8.02888 13.4999C8.00963 13.6444 8 13.796 8 13.9551C8 14.649 8.3238 15.1034 8.82142 15.4027C13.9415 14.7264 14.9005 11.4931 14.9005 11.4931C14.9005 11.4931 14.3642 14.9368 9.96896 15.8127C10.6222 15.9449 11.3503 15.9789 12.008 15.9964C13.4319 16.0343 14.6774 15.7844 15.4211 14.7264C16.789 12.7804 15.3036 9 15.3036 9C15.3036 9 14.7009 10.3089 13.0491 10.9166C12.8827 10.9778 12.7227 11.0261 12.5679 11.0644C11.5855 12.526 9.92008 13.4902 8.02888 13.4999Z" fill="#5FB865"/>
<path d="M11.2123 9.32459C10.8981 10.6008 9.62185 11.5 8.1329 11.5C6.2137 11.5 4.7876 10.0062 4.7876 8C4.7876 5.99378 6.2137 4.5 8.1329 4.5C9.62185 4.5 10.8981 5.39917 11.2123 6.67541H10.1971C9.8829 5.94544 9.10459 5.42334 8.1329 5.42334C6.79381 5.42334 5.82696 6.49655 5.82696 8C5.82696 9.50345 6.79381 10.5767 8.1329 10.5767C9.10459 10.5767 9.8829 10.0546 10.1971 9.32459H11.2123Z" fill="#3574F0"/>
<path d="M13.869 9.25306C13.9548 8.84892 14 8.42973 14 8C14 4.68629 11.3137 2 8 2C4.68629 2 2 4.68629 2 8C2 10.973 4.16236 13.4411 7.00015 13.9171C7.00005 13.9297 7 13.9424 7 13.9551C7 14.3248 7.06314 14.6568 7.17648 14.9521C3.69857 14.5445 1 11.5874 1 8C1 4.13401 4.13401 1 8 1C11.6421 1 14.6345 3.78152 14.9689 7.33615L14.3991 8.57362L14.392 8.58708C14.3821 8.60576 14.3632 8.63974 14.3348 8.68544C14.2776 8.77727 14.1834 8.91358 14.0472 9.06732C13.9941 9.12736 13.9347 9.18976 13.869 9.25306Z" fill="#3574F0"/>
</svg>
