<svg width="16" height="16" viewBox="0 0 16 16" fill="none" xmlns="http://www.w3.org/2000/svg">
<path d="M15.4211 14.7264C16.789 12.7804 15.3036 9 15.3036 9C15.3036 9 14.7009 10.3089 13.0491 10.9166C11.6055 11.4477 10.6413 11.0007 9.47168 11.5788C8.49036 12.064 8 12.8197 8 13.9551C8 14.649 8.3238 15.1034 8.82142 15.4027C13.9415 14.7264 14.9005 11.4931 14.9005 11.4931C14.9005 11.4931 14.3642 14.9368 9.96896 15.8127C10.6222 15.9449 11.3503 15.9789 12.008 15.9964C13.4319 16.0343 14.6774 15.7844 15.4211 14.7264Z" fill="#5FB865"/>
<path d="M9.65866 1.70242C9.97809 1.79054 10.1656 2.12093 10.0775 2.44037L6.92208 13.8788C6.83396 14.1982 6.50356 14.3857 6.18412 14.2976C5.86469 14.2095 5.67717 13.8791 5.76529 13.5596L8.9207 2.12126C9.00882 1.80182 9.33922 1.6143 9.65866 1.70242Z" fill="#F28C35"/>
<path d="M5.41281 4.66699C5.61982 4.92575 5.57786 5.30332 5.31911 5.51033L1.96049 8.19723L5.31911 10.8841C5.57786 11.0911 5.61982 11.4687 5.41281 11.7275C5.20581 11.9862 4.82823 12.0282 4.56947 11.8212L0.0395508 8.19723L4.56947 4.57329C4.82823 4.36628 5.20581 4.40823 5.41281 4.66699Z" fill="#F28C35"/>
<path d="M14.9461 7.38571L14.429 8.50872L10.681 5.51036C10.4223 5.30336 10.3803 4.92578 10.5873 4.66702C10.7943 4.40827 11.1719 4.36631 11.4306 4.57332L14.9461 7.38571Z" fill="#F28C35"/>
</svg>
