<svg width="12" height="12" viewBox="0 0 12 12" fill="none" xmlns="http://www.w3.org/2000/svg">
    <g clip-path="url(#clip0_3380_47534)">
        <path fill-rule="evenodd" clip-rule="evenodd"
              d="M6.52634 1.45338C8.16358 3.09059 8.61538 5.32272 6.96026 6.97781C5.30514 8.63289 2.98758 8.12254 1.42233 6.55732C-0.142916 4.99211 -0.608551 2.64775 1.01078 1.02845C2.63012 -0.590855 4.8891 -0.183825 6.52634 1.45338Z"
              fill="#253627"/>
        <path fill-rule="evenodd" clip-rule="evenodd"
              d="M6.52634 1.45338C8.16358 3.09059 8.61538 5.32272 6.96026 6.97781C5.30514 8.63289 2.98758 8.12254 1.42233 6.55732C-0.142916 4.99211 -0.608551 2.64775 1.01078 1.02845C2.63012 -0.590855 4.8891 -0.183825 6.52634 1.45338ZM5.81924 2.1605C6.51799 2.85924 6.90507 3.62771 6.98439 4.32235C7.0442 4.84607 6.93682 5.37523 6.58504 5.87793L2.11211 1.40501C2.60199 1.06741 3.12827 0.957633 3.65544 1.01405C4.35503 1.08891 5.12691 1.46818 5.81924 2.1605ZM1.40382 2.11093L5.87906 6.58617C5.37353 6.93928 4.82543 7.04732 4.27527 6.98213C3.55643 6.89695 2.78438 6.50514 2.12943 5.85021C1.4809 5.20169 1.09686 4.42651 1.01619 3.70244C0.954499 3.14873 1.06497 2.60363 1.40382 2.11093Z"
              fill="#57965C"/>
        <path d="M10 5.49998C10 5.22384 9.77614 4.99998 9.5 4.99998C9.22386 4.99998 9 5.22384 9 5.49998L9 10.0858L7.85355 8.93934C7.65829 8.74408 7.34171 8.74408 7.14645 8.93934C6.95118 9.1346 6.95118 9.45118 7.14645 9.64645L9.5 12L11.8536 9.64645C12.0488 9.45118 12.0488 9.1346 11.8536 8.93934C11.6583 8.74408 11.3417 8.74408 11.1464 8.93934L10 10.0858L10 5.49998Z"
              fill="#CED0D6"/>
    </g>
    <defs>
        <clipPath id="clip0_3380_47534">
            <rect width="12" height="12" fill="white"/>
        </clipPath>
    </defs>
</svg>
