<svg width="12" height="12" viewBox="0 0 12 12" fill="none" xmlns="http://www.w3.org/2000/svg">
    <g clip-path="url(#clip0_3380_47671)">
        <path d="M11.3349 4.27457C10.96 3.5359 10.4365 2.82702 9.78951 2.18008C7.33364 -0.275738 3.94518 -0.886283 1.51618 1.54267C-0.912826 3.97163 -0.214374 7.48816 2.1335 9.83599C2.79528 10.4978 3.54672 11.0338 4.34029 11.4069C3.50872 10.514 3 9.31639 3 8C3 5.23858 5.23858 3 8 3C9.28136 3 10.4501 3.482 11.3349 4.27457Z"
              fill="#253627"/>
        <path d="M11.3349 4.27457C10.96 3.5359 10.4365 2.82702 9.78951 2.18008C7.33364 -0.275738 3.94518 -0.886283 1.51618 1.54267C-0.912826 3.97163 -0.214374 7.48816 2.1335 9.83599C2.79528 10.4978 3.54672 11.0338 4.34029 11.4069C3.83593 10.8653 3.45033 10.2117 3.22497 9.48743C3.09412 9.3737 2.96584 9.25412 2.8406 9.12887C1.80075 8.08905 1.16285 6.82517 1.02736 5.60902C0.910352 4.5588 1.16139 3.51663 1.90023 2.60733L4.12853 4.83563C4.34011 4.57708 4.57708 4.34011 4.83563 4.12853L2.609 1.90189C3.51507 1.16888 4.52473 0.915652 5.53637 1.02391C6.72186 1.15077 7.98076 1.78557 9.08241 2.88719C9.18232 2.9871 9.27849 3.08818 9.37088 3.19027C10.1095 3.40038 10.7784 3.77604 11.3349 4.27457Z"
              fill="#57965C"/>
        <path fill-rule="evenodd" clip-rule="evenodd"
              d="M12 8C12 5.79086 10.2091 4 8 4C5.79086 4 4 5.79086 4 8C4 10.2091 5.79086 12 8 12C10.2091 12 12 10.2091 12 8ZM6.26354 8.5C6.3098 9.34792 6.47216 10.1134 6.71313 10.7107C5.84445 10.2976 5.20577 9.47924 5.04148 8.5H6.26354ZM7.2652 8.5C7.3134 9.285 7.47198 9.95505 7.67872 10.4276C7.7975 10.6991 7.91458 10.8652 8 10.9529C8.08542 10.8652 8.2025 10.6991 8.32128 10.4276C8.52802 9.95505 8.6866 9.285 8.7348 8.5H7.2652ZM8.7348 7.5H7.2652C7.3134 6.715 7.47198 6.04495 7.67872 5.57239C7.7975 5.30089 7.91458 5.13483 8 5.04713C8.08542 5.13483 8.2025 5.30089 8.32128 5.57239C8.52802 6.04495 8.6866 6.715 8.7348 7.5ZM9.73646 8.5C9.6902 9.34792 9.52784 10.1134 9.28687 10.7107C10.1556 10.2976 10.7942 9.47924 10.9585 8.5H9.73646ZM10.9585 7.5H9.73646C9.6902 6.65208 9.52784 5.88659 9.28687 5.28925C10.1556 5.70237 10.7942 6.52076 10.9585 7.5ZM6.26354 7.5H5.04148C5.20577 6.52076 5.84445 5.70237 6.71313 5.28925C6.47216 5.88659 6.3098 6.65208 6.26354 7.5Z"
              fill="#CED0D6"/>
        <path d="M6.71315 10.7107C6.47219 10.1134 6.30982 9.34792 6.26356 8.5H5.0415C5.20579 9.47924 5.84447 10.2976 6.71315 10.7107Z"
              fill="#43454A"/>
        <path d="M7.67875 10.4276C7.472 9.95505 7.31343 9.285 7.26522 8.5H8.73483C8.68662 9.285 8.52805 9.95505 8.3213 10.4276C8.20252 10.6991 8.08545 10.8652 8.00002 10.9529C7.9146 10.8652 7.79753 10.6991 7.67875 10.4276Z"
              fill="#43454A"/>
        <path d="M7.67875 5.57239C7.472 6.04495 7.31343 6.715 7.26522 7.5H8.73483C8.68662 6.715 8.52805 6.04495 8.3213 5.57239C8.20252 5.30089 8.08545 5.13483 8.00002 5.04713C7.9146 5.13483 7.79753 5.30089 7.67875 5.57239Z"
              fill="#43454A"/>
        <path d="M9.2869 10.7107C9.52786 10.1134 9.69023 9.34792 9.73649 8.5H10.9585C10.7943 9.47924 10.1556 10.2976 9.2869 10.7107Z"
              fill="#43454A"/>
        <path d="M9.73649 7.5H10.9585C10.7943 6.52076 10.1556 5.70237 9.2869 5.28925C9.52786 5.88659 9.69023 6.65208 9.73649 7.5Z"
              fill="#43454A"/>
        <path d="M5.0415 7.5H6.26356C6.30982 6.65208 6.47219 5.88659 6.71315 5.28925C5.84447 5.70237 5.20579 6.52076 5.0415 7.5Z"
              fill="#43454A"/>
    </g>
    <defs>
        <clipPath id="clip0_3380_47671">
            <rect width="12" height="12" fill="white"/>
        </clipPath>
    </defs>
</svg>
