<svg width="12" height="12" viewBox="0 0 12 12" fill="none" xmlns="http://www.w3.org/2000/svg">
    <g clip-path="url(#clip0_3363_48268)">
        <rect x="3.5" y="1.5" width="5" height="9" rx="1.5" fill="#253627" stroke="#57965C"/>
        <path fill-rule="evenodd" clip-rule="evenodd"
              d="M0 3.5C0 3.22386 0.223858 3 0.5 3H2.99998V4H0.5C0.223858 4 0 3.77614 0 3.5ZM9 3H11.5C11.7762 3 12 3.22386 12 3.5C12 3.77614 11.7762 4 11.5 4H9V3ZM2.14577e-05 6C2.14577e-05 5.72386 0.223879 5.5 0.500021 5.5H3V6.5H0.500021C0.223879 6.5 2.14577e-05 6.27614 2.14577e-05 6ZM9 5.5H11.5C11.7762 5.5 12 5.72386 12 6C12 6.27614 11.7762 6.5 11.5 6.5H9V5.5ZM0 8.5C0 8.22386 0.223858 8 0.5 8H2.99998V9H0.5C0.223858 9 0 8.77614 0 8.5ZM9 8H11.5C11.7762 8 12 8.22386 12 8.5C12 8.77614 11.7762 9 11.5 9H9V8Z"
              fill="#CED0D6"/>
    </g>
    <defs>
        <clipPath id="clip0_3363_48268">
            <rect width="12" height="12" fill="white"/>
        </clipPath>
    </defs>
</svg>
