<svg width="12" height="12" viewBox="0 0 12 12" fill="none" xmlns="http://www.w3.org/2000/svg">
    <g clip-path="url(#clip0_3388_47554)">
        <path fill-rule="evenodd" clip-rule="evenodd"
              d="M12 8C12 9.65685 10.6569 11 9 11C8.35208 11 7.75214 10.7946 7.26173 10.4454L5.85355 11.8536C5.65829 12.0488 5.34171 12.0488 5.14645 11.8536C4.95118 11.6583 4.95118 11.3417 5.14645 11.1464L6.55463 9.73827C6.2054 9.24786 6 8.64792 6 8C6 6.34315 7.34315 5 9 5C10.6569 5 12 6.34315 12 8ZM11 8C11 9.10457 10.1046 10 9 10C7.89543 10 7 9.10457 7 8C7 6.89543 7.89543 6 9 6C10.1046 6 11 6.89543 11 8Z"
              fill="#CED0D6"/>
        <path d="M11.6539 5.00718C11.289 4.00584 10.6479 3.03845 9.78951 2.18008C7.33364 -0.275738 3.94518 -0.886283 1.51618 1.54267C-0.912826 3.97163 -0.214374 7.48816 2.1335 9.83599C2.70596 10.4084 3.3455 10.8868 4.02137 11.247C4.07172 10.9512 4.21104 10.6676 4.43934 10.4393L5.31674 9.56194C5.11284 9.08161 5 8.55337 5 8C5 5.79086 6.79086 4 9 4C10.0183 4 10.9478 4.38054 11.6539 5.00718Z"
              fill="#253627"/>
        <path d="M11.6539 5.00718C11.289 4.00584 10.6479 3.03845 9.78951 2.18008C7.33364 -0.275738 3.94518 -0.886283 1.51618 1.54267C-0.912826 3.97163 -0.214374 7.48816 2.1335 9.83599C2.70596 10.4084 3.3455 10.8868 4.02137 11.247C4.07172 10.9512 4.21104 10.6676 4.43934 10.4393L4.50638 10.3723C3.92057 10.0623 3.35506 9.64333 2.8406 9.12887C1.80075 8.08905 1.16285 6.82517 1.02736 5.60902C0.910352 4.5588 1.16139 3.51663 1.90023 2.60733L5.44927 6.15638C5.60691 5.8534 5.80218 5.57314 6.0289 5.32179L2.609 1.90189C3.51507 1.16888 4.52473 0.915652 5.53637 1.02391C6.72186 1.15077 7.98076 1.78557 9.08241 2.88719C9.49002 3.2948 9.83541 3.72191 10.1159 4.15773C10.693 4.32504 11.2164 4.61886 11.6539 5.00718Z"
              fill="#57965C"/>
    </g>
    <defs>
        <clipPath id="clip0_3388_47554">
            <rect width="12" height="12" fill="white"/>
        </clipPath>
    </defs>
</svg>
