<svg width="12" height="12" viewBox="0 0 12 12" fill="none" xmlns="http://www.w3.org/2000/svg">
    <g clip-path="url(#clip0_3376_47489)">
        <path fill-rule="evenodd" clip-rule="evenodd"
              d="M9.78951 2.18008C12.2454 4.63589 12.9231 7.98408 10.4404 10.4667C7.95772 12.9493 4.48137 12.1838 2.1335 9.83599C-0.214374 7.48816 -0.912826 3.97163 1.51618 1.54267C3.94518 -0.886283 7.33364 -0.275738 9.78951 2.18008Z"
              fill="#253627"/>
        <path fill-rule="evenodd" clip-rule="evenodd"
              d="M9.78951 2.18008C12.2454 4.63589 12.9231 7.98408 10.4404 10.4667C7.95772 12.9493 4.48137 12.1838 2.1335 9.83599C-0.214374 7.48816 -0.912826 3.97163 1.51618 1.54267C3.94518 -0.886283 7.33364 -0.275738 9.78951 2.18008ZM9.08241 2.88719C10.1905 3.99523 10.8387 5.24737 10.9734 6.42679C11.0882 7.43289 10.8392 8.44652 10.0819 9.37477L2.609 1.90189C3.51507 1.16888 4.52473 0.915652 5.53637 1.02391C6.72186 1.15077 7.98076 1.78557 9.08241 2.88719ZM1.90023 2.60733L9.37634 10.0835C8.44471 10.8467 7.39845 11.0935 6.35406 10.9697C5.14426 10.8264 3.88686 10.1751 2.8406 9.12887C1.80075 8.08905 1.16285 6.82517 1.02736 5.60902C0.910352 4.5588 1.16139 3.51663 1.90023 2.60733Z"
              fill="#57965C"/>
    </g>
    <defs>
        <clipPath id="clip0_3376_47489">
            <rect width="12" height="12" fill="white"/>
        </clipPath>
    </defs>
</svg>
