<svg width="13" height="12" viewBox="0 0 13 12" fill="none" xmlns="http://www.w3.org/2000/svg">
    <path fill-rule="evenodd" clip-rule="evenodd"
          d="M10.1373 9.34651C8.65905 11.3252 5.50348 10.6613 3.47946 10.7533C3.47946 10.7533 3.12117 10.7737 2.75997 10.8336C2.75997 10.8336 2.8966 10.7752 3.07102 10.7146C4.49183 10.2208 5.16408 10.1215 6.02819 9.67519C7.65032 8.8396 9.26589 7.02014 9.59366 5.12983C8.97592 6.94856 7.09725 8.51311 5.3872 9.14711C4.21566 9.58097 2.09789 10.0053 2.09789 10.0053L2.01214 9.95933C0.571706 9.25521 0.45619 6.13999 3.07106 5.12983C4.21788 4.68646 5.35485 4.82853 6.59397 4.53125C8.01615 4.19005 9.11155 3.26562 10.0284 1.98438C10.8987 3.84375 11.6402 7.33422 10.1373 9.34651Z"
          fill="#253627"/>
    <path fill-rule="evenodd" clip-rule="evenodd"
          d="M5.13524 11.7725C5.73991 11.7909 6.41718 11.8054 7.08846 11.7546C7.10737 11.7531 7.12744 11.7517 7.1486 11.7501C7.87856 11.6965 9.91567 11.547 11.125 9.66406C12.2891 7.85156 11.9697 5.52999 11.9697 5.52999C11.8532 4.04407 11.4159 2.59 10.9341 1.56048C10.4522 0.530966 10.2031 0.015625 10.2031 0.015625C10.2031 0.015625 10.0469 0.240152 9.21514 1.40244C8.3834 2.56472 7.57812 3.17969 6.53125 3.50781C6.09761 3.64373 5.64521 3.67911 5.14901 3.71792C4.44731 3.7728 3.65803 3.83453 2.71041 4.19711C1.09269 4.8161 0.186422 6.20543 0.0277754 7.54144C-0.119363 8.78054 0.332515 10.2386 1.55386 10.8483C1.55386 10.8483 1.45312 11.0703 1.84375 11.4922C2.23438 11.9141 2.92349 11.8202 2.92349 11.8202C2.92349 11.8202 3.22709 11.778 3.34822 11.7667C3.78658 11.7257 4.2265 11.7414 4.66583 11.7571C4.74317 11.7598 4.82048 11.7626 4.89777 11.765L5.13524 11.7725ZM4.93218 10.7656C6.79709 10.8251 8.98064 10.8947 10.1373 9.34651C11.6402 7.33422 10.8987 3.84375 10.0284 1.98438C9.11155 3.26562 8.01615 4.19005 6.59397 4.53125C6.06887 4.65723 5.56212 4.70431 5.06519 4.75047C4.38946 4.81325 3.7319 4.87435 3.07106 5.12983C0.45619 6.13999 0.571706 9.25521 2.01214 9.95933L2.09789 10.0053C2.09789 10.0053 4.21566 9.58097 5.3872 9.14711C7.09725 8.51311 8.97592 6.94856 9.59366 5.12983C9.26589 7.02014 7.65032 8.8396 6.02819 9.67519C5.4801 9.95827 5.00919 10.1018 4.37549 10.2948C4.01012 10.4062 3.59063 10.534 3.07102 10.7146C2.8966 10.7752 2.75997 10.8336 2.75997 10.8336C3.12117 10.7737 3.47946 10.7533 3.47946 10.7533C3.91979 10.7333 4.41367 10.749 4.93218 10.7656Z"
          fill="#57965C"/>
</svg>
