<svg width="12" height="12" viewBox="0 0 12 12" fill="none" xmlns="http://www.w3.org/2000/svg">
    <g clip-path="url(#clip0_3385_47500)">
        <path d="M8.92526 12C10.4142 12 11.6905 11.1008 12.0047 9.82459H10.9895C10.6753 10.5546 9.89694 11.0767 8.92526 11.0767C7.58617 11.0767 6.61932 10.0035 6.61932 8.5C6.61932 6.99655 7.58617 5.92334 8.92526 5.92334C9.89694 5.92334 10.6753 6.44544 10.9895 7.17541H12.0047C11.6905 5.89917 10.4142 5 8.92526 5C7.00606 5 5.57996 6.49378 5.57996 8.5C5.57996 10.5062 7.00606 12 8.92526 12Z"
              fill="#CED0D6"/>
        <path d="M11.6075 4.88364C11.2359 3.92634 10.6125 3.00309 9.78951 2.18008C7.33364 -0.275738 3.94518 -0.886283 1.51618 1.54267C-0.912826 3.97163 -0.214374 7.48816 2.1335 9.83599C3.26204 10.9645 4.65131 11.7275 6.06563 11.9398C5.14 11.1193 4.58008 9.89068 4.58008 8.5C4.58008 5.98492 6.41146 4 8.92538 4C9.91065 4 10.8632 4.3175 11.6075 4.88364Z"
              fill="#253627"/>
        <path d="M11.6075 4.88364C11.2359 3.92634 10.6125 3.00309 9.78951 2.18008C7.33364 -0.275738 3.94518 -0.886283 1.51618 1.54267C-0.912826 3.97163 -0.214374 7.48816 2.1335 9.83599C3.26204 10.9645 4.65131 11.7275 6.06563 11.9398C5.65661 11.5772 5.31899 11.135 5.06954 10.6342C4.28485 10.3187 3.51841 9.80667 2.8406 9.12887C1.80075 8.08905 1.16285 6.82517 1.02736 5.60902C0.910352 4.5588 1.16139 3.51663 1.90023 2.60733L5.28117 5.98827C5.46109 5.70133 5.67239 5.43833 5.91124 5.20413L2.609 1.90189C3.51507 1.16888 4.52473 0.915652 5.53637 1.02391C6.72186 1.15077 7.98076 1.78557 9.08241 2.88719C9.48987 3.29465 9.83515 3.72159 10.1156 4.15723C10.661 4.30423 11.1702 4.55102 11.6075 4.88364Z"
              fill="#57965C"/>
    </g>
    <defs>
        <clipPath id="clip0_3385_47500">
            <rect width="12" height="12" fill="white"/>
        </clipPath>
    </defs>
</svg>
